<svg width="112" height="50" viewBox="0 0 112 50" fill="none" xmlns="http://www.w3.org/2000/svg">
<g clip-path="url(#clip0_4_3)">
<path d="M108.809 0C95.8425 17.4664 81.8441 34.1621 66.8866 50C79.8528 32.5333 93.8513 15.8377 108.809 0Z" fill="white"/>
<path d="M83.3071 0C88.6526 5.22557 93.5664 10.8233 98.3742 16.5209C103.148 22.2463 107.801 28.0572 112 34.2245C106.651 28.9978 101.737 23.4 96.9354 17.7036C92.1606 11.9734 87.5089 6.16253 83.3071 0Z" fill="#F27900"/>
<path d="M77.9287 0C83.2791 5.22557 88.188 10.8233 92.997 16.5209C97.7706 22.2463 102.424 28.0572 106.622 34.2245C101.272 28.9978 96.3599 23.4 91.5546 17.7036C86.7834 11.9734 82.1317 6.16253 77.9287 0Z" fill="#008BD8"/>
<path d="M0 12.0433H15.0427C17.2033 12.0433 18.9445 13.5764 18.9445 15.4792V16.0224C18.9363 16.4882 18.8285 16.9471 18.628 17.3689C18.4275 17.7907 18.139 18.1658 17.7812 18.4695C18.4872 19.1102 18.9445 19.9641 18.9445 20.9348V21.4587C18.9445 23.3615 17.1996 24.9151 15.0427 24.9151H0V12.0433ZM15.0427 17.4784C16.0181 17.4784 16.8082 16.8184 16.8082 16.0224V15.4792C16.8082 14.6831 16.0193 14.0232 15.0427 14.0232H2.13989V17.4784H15.0427ZM15.0427 22.9147C16.0181 22.9147 16.8082 22.2547 16.8082 21.4587V20.9348C16.8082 20.1195 16.0193 19.4788 15.0427 19.4788H2.13989V22.9183L15.0427 22.9147Z" fill="white"/>
<path d="M20.921 15.4828C20.921 13.58 22.667 12.0469 24.8228 12.0469H37.9377V14.0268H24.8277C23.8522 14.0268 23.0609 14.6868 23.0609 15.4828V17.482H35.8393V19.4824H23.0609V21.4623C23.0609 22.2584 23.851 22.9183 24.8277 22.9183H37.9377V24.9187H24.8277C22.667 24.9187 20.9259 23.3651 20.9259 21.4623L20.921 15.4828Z" fill="white"/>
<path d="M39.9106 24.9187V18.8417C39.9106 14.3182 42.4711 11.9301 47.3069 11.9301H51.4623C56.2408 11.9301 58.8587 14.3953 58.8587 18.8417V24.7633H56.7188V20.8806H42.0504V24.9187H39.9106ZM56.7188 18.8802V18.8417C56.7188 15.5021 55.0569 13.9292 51.4623 13.9292H47.3093C43.6319 13.9292 42.0529 15.4057 42.0529 18.8417V18.8802H56.7188Z" fill="white"/>
<path d="M61.2473 11.8915H63.6579L71.5322 21.6779L79.4065 11.8927H81.8159V24.9187H79.676V14.8807L71.5322 24.997L63.3872 14.8807V24.9187H61.2473V11.8915Z" fill="white"/>
<path d="M13.7648 29.2507C14.1062 29.244 14.4451 29.3097 14.7586 29.4434C15.0457 29.5728 15.2967 29.7691 15.4901 30.0154L15.0024 30.5682C14.8522 30.3708 14.6599 30.2084 14.4391 30.0925C14.2188 29.9874 13.9765 29.9354 13.7319 29.9407C13.5833 29.9362 13.4352 29.9595 13.2954 30.0094C13.1952 30.0426 13.1075 30.1052 13.0442 30.1888C12.9918 30.2611 12.9641 30.348 12.965 30.4369C12.9641 30.4908 12.9755 30.5442 12.9983 30.5932C13.0211 30.6421 13.0547 30.6855 13.0966 30.7199C13.2309 30.817 13.3862 30.8817 13.5502 30.909L14.3233 31.0837C14.7342 31.174 15.028 31.3101 15.2073 31.4907C15.2966 31.5837 15.3662 31.6934 15.4121 31.8134C15.4579 31.9333 15.4791 32.0611 15.4743 32.1892C15.4807 32.4369 15.4054 32.68 15.2597 32.8817C15.1077 33.0819 14.9008 33.2349 14.6635 33.3225C14.3814 33.4307 14.0808 33.4842 13.7782 33.4803C13.5097 33.4831 13.2421 33.4487 12.9832 33.3779C12.7554 33.3157 12.5381 33.2208 12.3382 33.0961C12.1592 32.9838 12.0001 32.843 11.8676 32.6794L12.3553 32.1013C12.4551 32.2373 12.5761 32.3568 12.7138 32.4554C12.8626 32.5603 13.0272 32.6416 13.2015 32.6962C13.3867 32.757 13.5807 32.7875 13.7758 32.7866C13.9219 32.7899 14.0677 32.77 14.2074 32.7276C14.3122 32.6973 14.4066 32.6395 14.4806 32.5602C14.5439 32.4863 14.5774 32.392 14.5744 32.2952C14.5753 32.1945 14.5374 32.0972 14.4684 32.023C14.354 31.9232 14.2115 31.8602 14.0599 31.8424L13.2161 31.6557C12.9987 31.6069 12.7885 31.5308 12.5906 31.4293C12.4281 31.3462 12.2912 31.2214 12.1943 31.068C12.105 30.9075 12.0624 30.7258 12.0712 30.5429C12.0681 30.3079 12.1388 30.0778 12.2736 29.8841C12.4205 29.6799 12.6218 29.5199 12.8552 29.4217C13.1428 29.3019 13.4528 29.2436 13.7648 29.2507Z" fill="white"/>
<path d="M20.6576 29.2507C21.0283 29.241 21.3949 29.3292 21.7196 29.506C22.0165 29.6743 22.2563 29.9257 22.4085 30.2286C22.5685 30.5847 22.6512 30.9699 22.6512 31.3594C22.6512 31.749 22.5685 32.1342 22.4085 32.4903C22.2563 32.7931 22.0165 33.0446 21.7196 33.2129C21.3948 33.3893 21.0282 33.477 20.6576 33.467C20.2855 33.4767 19.9174 33.389 19.5907 33.2129C19.2928 33.045 19.0522 32.7935 18.8993 32.4903C18.7402 32.134 18.658 31.7489 18.658 31.3594C18.658 30.97 18.7402 30.5849 18.8993 30.2286C19.0522 29.9254 19.2928 29.6739 19.5907 29.506C19.9173 29.3294 20.2854 29.2413 20.6576 29.2507ZM20.6576 29.9528C20.4466 29.9463 20.2384 30.0025 20.0601 30.1142C19.8891 30.2312 19.7584 30.3972 19.6858 30.5899C19.5135 31.09 19.5135 31.6325 19.6858 32.1326C19.7567 32.3278 19.8876 32.4962 20.0601 32.6143C20.2381 32.7269 20.4464 32.7836 20.6576 32.7769C20.8664 32.7829 21.0722 32.7263 21.2477 32.6143C21.4207 32.4966 21.5516 32.328 21.6221 32.1326C21.7944 31.6325 21.7944 31.09 21.6221 30.5899C21.5499 30.397 21.4191 30.2309 21.2477 30.1142C21.0719 30.0032 20.8662 29.9469 20.6576 29.9528Z" fill="white"/>
<path d="M26.9578 32.7227H29.1416V33.4128H26.0933V29.3181H26.9602L26.9578 32.7227Z" fill="white"/>
<path d="M35.8381 29.3133V31.7942C35.8381 32.3562 35.6869 32.7753 35.3845 33.0515C35.0821 33.3277 34.6419 33.4706 34.064 33.4803C33.486 33.4803 33.0458 33.3406 32.7434 33.0612C32.4411 32.7818 32.2903 32.3594 32.2911 31.7942V29.3133H33.1653V31.7605C33.1653 32.1037 33.2397 32.3626 33.3885 32.524C33.5372 32.6854 33.764 32.7733 34.0701 32.7733C34.3761 32.7733 34.6029 32.6902 34.7492 32.524C34.8955 32.3578 34.9699 32.1037 34.9699 31.7605V29.3133H35.8381Z" fill="white"/>
<path d="M42.6857 29.3133V30.0022H41.2957V33.4128H40.4288V30.0022H39.0327V29.3133H42.6857Z" fill="white"/>
<path d="M46.8302 29.3133V33.408H45.9681V29.3133H46.8302Z" fill="white"/>
<path d="M52.2695 29.2507C52.6406 29.2411 53.0075 29.3292 53.3327 29.506C53.6294 29.6746 53.869 29.926 54.0216 30.2286C54.1808 30.5849 54.263 30.97 54.263 31.3594C54.263 31.7489 54.1808 32.134 54.0216 32.4903C53.869 32.7929 53.6294 33.0443 53.3327 33.2129C53.0034 33.3799 52.6385 33.4671 52.2683 33.4671C51.8981 33.4671 51.5332 33.3799 51.2038 33.2129C50.9057 33.0454 50.665 32.7938 50.5125 32.4903C50.3525 32.1342 50.2698 31.749 50.2698 31.3594C50.2698 30.9699 50.3525 30.5846 50.5125 30.2286C50.665 29.9251 50.9057 29.6735 51.2038 29.506C51.53 29.3294 51.8977 29.2413 52.2695 29.2507ZM52.2695 29.9528C52.0585 29.9465 51.8504 30.0027 51.672 30.1142C51.5013 30.2316 51.3707 30.3975 51.2977 30.5899C51.127 31.0903 51.127 31.6322 51.2977 32.1326C51.369 32.3276 51.4998 32.4959 51.672 32.6143C51.8501 32.7268 52.0583 32.7834 52.2695 32.7769C52.4787 32.783 52.6849 32.7263 52.8609 32.6143C53.0331 32.4959 53.1639 32.3276 53.2352 32.1326C53.4075 31.6325 53.4075 31.09 53.2352 30.5899C53.1622 30.3975 53.0316 30.2316 52.8609 30.1142C52.6845 30.0032 52.4785 29.947 52.2695 29.9528Z" fill="white"/>
<path d="M61.2692 29.3133V33.408H60.2755L58.8221 30.9993L58.4636 30.3285H58.4575L58.4831 31.0367V33.4092H57.7028V29.3145H58.6904L60.1426 31.7232L60.5011 32.4H60.5145L60.4889 31.6918V29.3133H61.2692Z" fill="white"/>
<path d="M66.4318 29.2507C66.7732 29.244 67.1121 29.3097 67.4256 29.4434C67.7127 29.5728 67.9637 29.7691 68.1572 30.0154L67.6694 30.5682C67.5192 30.3708 67.3269 30.2084 67.1061 30.0925C66.8858 29.9876 66.6435 29.9356 66.3989 29.9407C66.2503 29.9362 66.1022 29.9595 65.9624 30.0094C65.862 30.043 65.7741 30.1055 65.71 30.1888C65.6585 30.2615 65.6312 30.3482 65.632 30.4369C65.6312 30.4908 65.6426 30.5442 65.6653 30.5932C65.6881 30.6421 65.7217 30.6855 65.7636 30.7199C65.8974 30.817 66.0524 30.8817 66.216 30.909L66.9903 31.0836C67.4008 31.1744 67.695 31.3101 67.8731 31.4907C67.9626 31.5836 68.0325 31.6933 68.0785 31.8132C68.1246 31.9332 68.1459 32.061 68.1413 32.1892C68.1473 32.4356 68.0725 32.6772 67.9279 32.8781C67.7754 33.0783 67.5681 33.2313 67.3305 33.3189C67.051 33.4276 66.753 33.4824 66.4526 33.4803C66.184 33.4831 65.9164 33.4487 65.6576 33.3779C65.4297 33.3157 65.2124 33.2208 65.0126 33.0961C64.8329 32.9841 64.6734 32.8433 64.5407 32.6794L65.0284 32.1013C65.1282 32.2373 65.2492 32.3568 65.3869 32.4554C65.5357 32.5604 65.7003 32.6417 65.8746 32.6962C66.0602 32.7569 66.2546 32.7874 66.4501 32.7866C66.5963 32.7898 66.742 32.7699 66.8818 32.7276C66.9863 32.6969 67.0806 32.6391 67.1549 32.5602C67.2176 32.4837 67.2507 32.3877 67.2485 32.2894C67.2463 32.191 67.2088 32.0966 67.1427 32.023C67.0278 31.9232 66.8849 31.8602 66.733 31.8424L65.8905 31.6557C65.673 31.6069 65.4628 31.5308 65.265 31.4293C65.0989 31.3486 64.9603 31.2219 64.8659 31.0648C64.7715 30.9076 64.7254 30.7267 64.7333 30.5441C64.7304 30.3093 64.8007 30.0794 64.9345 29.8853C65.0815 29.6811 65.2828 29.5211 65.5161 29.4229C65.8055 29.302 66.1177 29.2433 66.4318 29.2507Z" fill="white"/>
</g>
<defs>
<clipPath id="clip0_4_3">
<rect width="112" height="50" fill="white"/>
</clipPath>
</defs>
</svg>
